<svg width="48" height="47" viewBox="0 0 48 47" fill="none" xmlns="http://www.w3.org/2000/svg">
<g clip-path="url(#clip0_48_54)">
<mask id="mask0_48_54" style="mask-type:luminance" maskUnits="userSpaceOnUse" x="0" y="-1" width="48" height="48">
<path d="M48 -1H0V47H48V-1Z" fill="white"/>
</mask>
<g mask="url(#mask0_48_54)">
<path d="M0 14.5792C0 8.35769 3.83632 2.74813 9.87831 1.26425C19.9862 -1.2182 35.2427 -3.26324 42.753 4.24707C49.0925 10.5867 48.6236 22.4456 46.8302 32.0683C45.1204 41.2426 36.587 47 27.2548 47H7.5C3.35787 47 0 43.6421 0 39.5V14.5792Z" fill="#FE705A"/>
</g>
<path d="M10.821 34.089C10.095 34.111 9.292 34.045 8.412 33.891C7.532 33.759 6.674 33.517 5.838 33.165C5.002 32.813 4.276 32.351 3.66 31.779C3.044 31.207 2.626 30.503 2.406 29.667C3.198 30.371 4.276 30.888 5.64 31.218C7.004 31.526 8.39 31.68 9.798 31.68C11.668 31.68 13.296 31.471 14.682 31.053C15.078 30.943 15.54 30.767 16.068 30.525C16.596 30.261 17.113 29.964 17.619 29.634C18.125 29.282 18.543 28.897 18.873 28.479C19.225 28.061 19.401 27.632 19.401 27.192C19.401 26.884 19.302 26.587 19.104 26.301C18.906 26.015 18.587 25.729 18.147 25.443C17.883 25.289 17.498 25.124 16.992 24.948C16.508 24.75 15.98 24.53 15.408 24.288C14.836 24.024 14.297 23.727 13.791 23.397C13.285 23.045 12.878 22.638 12.57 22.176C12.284 21.692 12.174 21.142 12.24 20.526C12.35 19.624 12.757 18.733 13.461 17.853C14.187 16.951 15.089 16.115 16.167 15.345C17.267 14.553 18.444 13.86 19.698 13.266C20.974 12.672 22.217 12.21 23.427 11.88C24.659 11.528 25.748 11.352 26.694 11.352C27.662 11.352 28.487 11.539 29.169 11.913C29.873 12.287 30.17 12.925 30.06 13.827C30.016 14.223 29.741 14.696 29.235 15.246C28.751 15.796 28.168 16.401 27.486 17.061C26.804 17.721 26.122 18.414 25.44 19.14C24.78 19.866 24.23 20.603 23.79 21.351C23.372 22.099 23.185 22.825 23.229 23.529C22.877 23.243 22.613 22.924 22.437 22.572C22.283 22.22 22.206 21.857 22.206 21.483C22.206 20.955 22.316 20.416 22.536 19.866C22.756 19.316 23.031 18.799 23.361 18.315C23.691 17.809 23.999 17.38 24.285 17.028C24.791 16.412 25.363 15.829 26.001 15.279C26.639 14.729 27.288 14.223 27.948 13.761C27.75 13.475 27.409 13.332 26.925 13.332C26.419 13.332 25.847 13.442 25.209 13.662C24.593 13.882 24.01 14.124 23.46 14.388C22.932 14.63 22.558 14.817 22.338 14.949C21.392 15.455 20.435 16.027 19.467 16.665C18.521 17.303 17.641 17.952 16.827 18.612C16.035 19.272 15.386 19.888 14.88 20.46C14.396 21.01 14.132 21.472 14.088 21.846C14.044 22.308 14.242 22.704 14.682 23.034C15.122 23.342 15.694 23.628 16.398 23.892C17.102 24.156 17.795 24.464 18.477 24.816C19.401 25.278 20.072 25.806 20.49 26.4C20.908 26.994 21.117 27.61 21.117 28.248C21.117 29.04 20.82 29.821 20.226 30.591C19.632 31.339 18.829 31.966 17.817 32.472C16.915 32.912 15.969 33.253 14.979 33.495C14.011 33.737 13.142 33.891 12.372 33.957C11.624 34.045 11.107 34.089 10.821 34.089ZM29.4686 34.683C28.1486 34.683 27.0816 34.573 26.2676 34.353C25.4756 34.133 24.8596 33.869 24.4196 33.561C23.9796 33.275 23.6386 33.044 23.3966 32.868C23.1326 32.626 23.0006 32.472 23.0006 32.406C23.0006 32.384 23.0226 32.373 23.0666 32.373C23.1546 32.373 23.2536 32.395 23.3636 32.439C23.4956 32.461 23.5946 32.494 23.6606 32.538C24.4306 32.802 25.0906 32.945 25.6406 32.967C26.2126 32.967 26.7956 32.967 27.3896 32.967C28.1156 32.967 28.9956 32.901 30.0296 32.769C31.0636 32.637 32.1416 32.417 33.2636 32.109C34.4076 31.801 35.4636 31.372 36.4316 30.822C37.7296 30.096 38.7196 29.238 39.4016 28.248C40.1056 27.258 40.4576 26.312 40.4576 25.41C40.4576 24.442 40.0286 23.617 39.1706 22.935C38.3126 22.253 36.9596 21.912 35.1116 21.912C34.9356 21.912 34.7486 21.912 34.5506 21.912C34.3526 21.912 34.1436 21.923 33.9236 21.945C33.0436 22.011 32.0976 22.176 31.0856 22.44C30.0956 22.682 29.1936 23.001 28.3796 23.397C27.5876 23.771 27.0266 24.2 26.6966 24.684C26.1466 25.476 25.6956 26.18 25.3436 26.796C24.9916 27.39 24.6836 27.951 24.4196 28.479C24.1556 29.007 23.8586 29.568 23.5286 30.162C23.4186 30.47 23.2316 30.624 22.9676 30.624C22.8356 30.624 22.7696 30.536 22.7696 30.36C22.7696 30.25 22.7806 30.162 22.8026 30.096C22.9346 29.59 23.2426 28.886 23.7266 27.984C24.2326 27.082 24.8486 26.07 25.5746 24.948C26.3006 23.826 27.0596 22.704 27.8516 21.582C28.6656 20.46 29.4356 19.426 30.1616 18.48C30.8876 17.534 31.5036 16.775 32.0096 16.203C32.5156 15.609 32.8346 15.312 32.9666 15.312C33.0986 15.312 33.2086 15.378 33.2966 15.51C33.3846 15.642 33.4176 15.763 33.3956 15.873C33.3956 15.873 33.2526 16.049 32.9666 16.401C32.6806 16.753 32.3176 17.204 31.8776 17.754C31.4596 18.304 31.0086 18.876 30.5246 19.47C30.0626 20.064 29.6446 20.603 29.2706 21.087C28.8966 21.549 28.6216 21.89 28.4456 22.11C30.4036 21.78 32.3616 21.384 34.3196 20.922C36.2996 20.46 38.1806 19.767 39.9626 18.843C41.0626 18.271 41.9206 17.655 42.5366 16.995C43.1746 16.313 43.4936 15.697 43.4936 15.147C43.4936 14.575 43.1306 14.102 42.4046 13.728C41.6786 13.332 40.5016 13.134 38.8736 13.134C38.2136 13.134 37.3996 13.211 36.4316 13.365C35.4636 13.519 34.4186 13.728 33.2966 13.992C32.1966 14.256 31.0966 14.575 29.9966 14.949C28.9186 15.301 27.9286 15.686 27.0266 16.104C26.1466 16.522 25.4426 16.951 24.9146 17.391C24.5406 17.677 24.4196 17.93 24.5516 18.15C24.5956 18.216 24.6176 18.282 24.6176 18.348C24.6176 18.392 24.5846 18.414 24.5186 18.414C24.4526 18.392 24.3866 18.359 24.3206 18.315C23.9686 18.095 23.7046 17.809 23.5286 17.457C23.3526 17.105 23.2646 16.786 23.2646 16.5C23.2646 16.39 23.2756 16.291 23.2976 16.203C23.3416 16.115 23.3746 16.038 23.3966 15.972C23.8146 15.356 24.4856 14.784 25.4096 14.256C26.3336 13.728 27.3786 13.255 28.5446 12.837C29.7326 12.397 30.9426 12.023 32.1746 11.715C33.4066 11.385 34.5506 11.143 35.6066 10.989C36.6626 10.813 37.5206 10.725 38.1806 10.725C40.4906 10.725 42.2616 11.044 43.4936 11.682C44.7476 12.298 45.3746 13.09 45.3746 14.058C45.3746 14.85 44.9456 15.708 44.0876 16.632C43.2296 17.556 41.8986 18.469 40.0946 19.371C39.2146 19.833 38.2686 20.229 37.2566 20.559C36.2446 20.889 35.2326 21.175 34.2206 21.417C34.6386 21.373 35.0346 21.34 35.4086 21.318C35.8046 21.296 36.1786 21.285 36.5306 21.285C38.9726 21.285 40.7436 21.692 41.8436 22.506C42.9436 23.298 43.4936 24.277 43.4936 25.443C43.4936 26.279 43.2296 27.17 42.7016 28.116C42.1736 29.04 41.4256 29.942 40.4576 30.822C39.5116 31.68 38.3676 32.439 37.0256 33.099C36.0796 33.561 35.1226 33.902 34.1546 34.122C33.1866 34.342 32.2956 34.485 31.4816 34.551C30.6676 34.639 29.9966 34.683 29.4686 34.683Z" fill="white"/>
</g>
<defs>
<clipPath id="clip0_48_54">
<rect width="48" height="47" fill="white"/>
</clipPath>
</defs>
</svg>
